<?xml version="1.0" encoding="utf-8"?>
<!-- Generator: Adobe Illustrator 27.9.0, SVG Export Plug-In . SVG Version: 6.00 Build 0)  -->
<svg version="1.2" baseProfile="tiny" id="Layer_1" xmlns="http://www.w3.org/2000/svg" xmlns:xlink="http://www.w3.org/1999/xlink"
	 x="0px" y="0px" viewBox="0 0 612 792" overflow="visible" xml:space="preserve">
<g>
	
		<image opacity="0.87" width="325" height="365" xlink:href="52872F5AF9B29604.png"  transform="matrix(1 0 0 1 176.2787 261.9369)">
	</image>
	<g>
		<path fill="#FFFFFF" d="M306.7,564.7c-2.6-0.5-4.8-0.9-7-1.5c-5.4-1.5-10.7-2.9-16-4.7c-17.6-6.1-33.3-15.5-47.4-27.8
			c-11.6-10.1-21.8-21.3-29.7-34.5c-6.4-10.6-11.5-21.7-14.7-33.7c-2-7.6-3.9-15.2-5.3-22.9c-0.9-5.1-0.9-10.4-1.2-15.6
			c-0.2-3-0.5-6.1-0.4-9.1c0.5-10.1,1.2-20.1,3.6-29.9c1.9-7.8,4.5-15.3,7.5-22.8c4-9.8,9.2-18.9,15-27.7c6.5-9.7,14-18.5,22.8-26.3
			c11.6-10.1,24-18.7,38-25.1c9.9-4.6,20.1-8.1,30.7-9.9c8-1.4,16.1-2.1,24.1-2.6c10.1-0.6,20.2-0.3,30.2,1.3
			c6.2,1,12.3,2.4,18.3,4.2c6.7,2,13.2,4.4,19.6,7.2c5.7,2.5,11.2,5.7,16.5,8.9c3.4,2,6.5,4.7,9.7,7c-0.1,0.2-0.2,0.4-0.3,0.6
			c-0.7-0.3-1.5-0.4-2.1-0.8c-8.2-4.9-16.6-9.5-25.5-12.8c-10.6-3.9-21.5-6.3-32.8-7c-10.5-0.6-20.9,0-31.2,1.9
			c-10.7,2-21.1,5.3-31,9.9c-9.8,4.6-19,10.3-27.5,17c-10.3,8.2-19.4,17.5-27,28.1c-6.8,9.4-12.2,19.7-16.4,30.5
			c-2.2,5.6-4.2,11.4-5.4,17.3c-1.6,8-3,16.2-3.3,24.4c-0.3,9.8,0.6,19.5,2.3,29.2c3.8,21,12.8,39.5,26.5,55.7
			c5.5,6.5,11.8,12.1,18.4,17.4c8.3,6.8,17.4,12.2,27.1,16.9c2.4,1.1,3.4,2.6,3.5,5.3c0.1,3.2,0.9,6.4,1.6,9.6
			c1.6,7.2,4.5,13.9,8,20.3C306.2,563.5,306.3,563.9,306.7,564.7z"/>
		<path fill="#FFFFFF" d="M369.3,388.9c-0.7,0.8-1.5,1.6-2,2.5c-1.3,2.2-2.5,4.4-3.8,6.7c-0.2-0.1-0.5-0.2-0.7-0.3
			c2.3-8.1,4.6-16.2,6.9-24.3c-0.1-0.1-0.2-0.3-0.3-0.4c-2.9,2.6-5.7,5.1-8.8,7.9c0.9-3.5,3-5.9,5-8.3c1.2-1.4,2.8-2.4,4.1-3.7
			c2.1-2.2,4.1-4.5,5.9-7.1c-4.3,0.4-7.9,2-11.3,5c0.6-2,2.9-4.4,5.8-5.8c4.4-2.1,8.8-4.1,13.2-6.2c0.4-0.2,0.8-0.5,1.3-0.7
			c-2-2.2-7.2-1.4-11.4,1.6c1.2-2.3,4.4-4.4,7.7-5.2c5.3-1.3,10.5-1.2,15.7,0c1,0.2,2-0.1,3-0.6c-3-1.6-6-2.9-8.8-4.8
			c-2.9-1.9-5.5-4.1-8.1-6.4c-2.5-2.2-4.7-4.7-7-7.1c0.2-0.2,0.4-0.4,0.5-0.7c0.5,0.3,1.2,0.5,1.6,0.9c5.8,5.2,12.6,8.3,20.2,9.9
			c2.1,0.4,4,1.5,6,2.4c1,0.4,2,1,3,1.5c0.1-0.1,0.3-0.3,0.4-0.4c-0.8-0.9-1.7-1.8-2.5-2.8c0.1-0.1,0.2-0.3,0.3-0.4
			c2.3,1.4,4.6,2.7,7.4,4.4c-0.7-2.5-1.8-3.8-3.4-4.9c-3.5-2.4-7.1-4.6-10.5-7.2c-6-4.7-7.7-11.6-4.7-18.6c0.3-0.6,0.6-1.2,1.4-1.6
			c0,0.6,0,1.2-0.1,1.8c-1.4,6.8,1,12,6.4,15.9c2.5,1.8,5,3.4,7.6,5c5.3,3.1,9.3,7.5,12.3,12.8c0.6,1.1,1.8,1.8,2.7,2.7
			c0.2-0.2,0.5-0.4,0.7-0.6c-0.4-1-0.8-2-1.4-3.4c3.1,1.5,4.8,3.8,6.5,6.2c0.2-0.1,0.4-0.2,0.6-0.2c-0.1-0.8-0.1-1.7-0.4-2.4
			c-1.7-4.5-4.3-8.4-8.3-11.1c-2.9-2-5.9-3.7-8.9-5.6c-2.3-1.5-4.8-2.8-7-4.4c-2.5-1.8-3.9-4.4-3.2-7.6c0.7-3.1,2.7-5.2,5.9-6
			c2-0.5,4.8,0.5,6.1,2.1c1.5,2,1.6,3.6,0.1,6c-0.2-0.9-0.3-1.6-0.6-2.3c-0.8-2.2-3.1-3.6-5.2-3.1c-2.4,0.6-3.2,2.1-2.9,4.9
			c0.5,3.8,3.3,5.8,6.1,7.7c2.3,1.6,4.8,3,7.2,4.4c6.7,4.1,11.4,9.8,13.5,17.5c0.4,1.6,1.6,2.9,2.4,4.4c1,1.8,2.3,3.5,3,5.4
			c1.1,3.1,2.4,5.8,5.7,7.4c1.5,0.7,2.2,3.4,2.7,5.3c0.5,1.8-1,3-2.5,3.7c-1.7,0.7-3.6,1.2-5.4,1.8c0-3.8-1.8-6.4-5.6-7.4
			c-3.2-0.8-6.5-1.1-9.8-1.1c-3.5-0.1-6.5-1.2-9.2-3.3c-0.6-0.5-1.3-0.9-1.9-1.3c0.5-0.5,0.6-0.7,0.7-0.7c0.8-0.3,1.6-0.7,2.3-1
			c-0.6-0.8-1-1.7-1.7-2.2c-2-1.4-4.2-1.9-6.6-1.5c-2.6,0.5-5.3,0.7-8,1.1c-0.6,0.1-1.2,0-2-0.5c2.9-1.2,5.8-2.5,9.2-3.9
			c-5.3-1.6-10-3-14.8-4.4c1.1,1.5,2.3,3,3.5,4.6c-8.7,7.8-10,17.5-7,28.4c-2.3-2.3-4.1-4.9-5-8c-0.9-3-1.5-6.2-2.7-9.4
			c-0.1,0.8-0.4,1.6-0.4,2.5c0.1,9,3.8,16.4,9.8,22.8c5.1,5.4,10.5,10.7,15.6,16.1c4.1,4.4,7.1,9.4,9.5,14.9
			c0.3,0.8,0.5,1.7,0.8,2.8c-3.3,0-6-1.1-8.4-2.5c-9.2-5.5-17.3-12.4-23.5-21.3c-3-4.2-5.1-8.8-4.5-14.2c-0.2,0-0.5,0-0.7-0.1
			c-0.2,1.4-0.6,2.9-0.5,4.2c0.5,6.4,3.5,11.8,7.3,16.6c3.3,4.2,7,8,10.6,12.2c-0.6-0.2-1.3-0.5-2.5-0.9c1,1.7,1.8,3,2.6,4.2
			c2.8,4.2,5.3,8.4,6.1,13.6c0.7,4.4,0.4,8.3-1.4,12.5c-1.9,4.6-5,7.4-9.3,9.1c-1.8,0.7-3.8,0.8-5.8,1.2c-5.2,1-9.6,3.1-11.5,8.4
			c-1.3,3.5-0.9,7,0.8,10.3c3.7,7.1,8.6,13.2,15.8,17.2c4.8,2.7,6.7,7.2,7.8,12.2c-0.2,0-0.4,0-0.7-0.1c-0.5,1.9-0.9,3.7-1.4,5.6
			c-0.2,0-0.4,0-0.6,0c-0.5-0.7-1-1.4-1.7-2.5c-0.7,3.5-3,4.6-5.4,5.2c0.4-2.2,1.7-4.6,1.2-6.6c-0.9-4-3-6-5.3-7.1
			c-0.4,1-0.6,2.1-1.1,3c-2.1,3.6-1.8,7.4,0.8,10.4c-2.8,0.3-5.4-3.1-5-6.2c0.3-1.9,0.4-3.8,0.3-5.7c-0.1-1.8-0.9-3.4-2.7-4.2
			c-1.3,2.2-2.3,2.6-3.6,1.5c-0.3-0.3-0.4-1.3-0.1-1.6c3-2.7,3.4-5.9,1-9.3c-1.7-2.4-3.9-4.5-5.7-6.8c-3.5-4.3-6-9.1-6.6-14.7
			c-0.8-7.7,2-13.9,8-18.8c1.5-1.2,3-2.3,4.6-3.4c2-1.4,3-3.3,2.5-5.8c-0.5-3.3-1-6.6-1.5-9.9c-0.3,0-0.5,0-0.8,0
			c-0.2,0.5-0.4,1.1-0.5,1.6c-1.6,10.5-8.2,17.5-16.6,22.9c-6.7,4.4-13.9,8-20.8,12.2c-9.9,6-18,13.8-23.2,24.3
			c-4.1,8.2-5.2,16.9-4.7,26c0.4,7.7,2,15.2,4.9,22.2c3.6,8.7,9.2,16.1,16.8,22c5.2,4.1,11,6.9,17.3,8.5c3.3,0.8,6.6,1.5,9.8,2.4
			c1,0.3,2,1.1,2.8,2c1.4,1.5,2.7,3.2,3.8,5.2c-8-1.6-15.8-3.9-23.2-7.3c-7.3-3.3-14.1-7.3-19.4-13.6c4.3,7.5,10.9,12.2,18.6,15.3
			c5.8,2.3,11.8,4.2,17.7,6.5c6.4,2.5,12.7,5.4,19.1,7.9c5.8,2.3,11.8,3.5,18.1,4c7.4,0.6,14.7-0.7,22-0.5c0.9,0,1.8-0.3,2.8-0.3
			c-3.9,2.2-8,3.8-12.5,4.2c-11.7,1.2-23.2,0.6-34.4-3c-9.6-3.1-18.8-7.1-27.5-12c-0.6-0.3-1.2-0.7-1.9-1c-0.1,0-0.2,0-0.7,0.2
			c10.5,7.8,22.2,12.4,34.1,16.8c-0.1,0.3-0.2,0.5-0.3,0.8c-1.1-0.1-2.1-0.1-3.2-0.3c-12.3-2.6-23.7-7.4-33.9-14.8
			c-3.9-2.8-7.9-5.7-11.4-9.1c-6-5.9-11.9-12-15.8-19.5c-3.4-6.6-7.2-13.1-8.6-20.6c-1.3-7.1-2.2-14.2-1.4-21.4
			c0.7-6.4,1.3-12.8,4.3-18.7c-5.2,6.3-7,14.1-9.4,21.6c-0.7-4.8,0.8-9.3,2-13.9c-2.7,2.1-4.7,4.8-6.4,7.8
			c3.2-10.7,10.5-18.9,18-27.5c-4.7,0.3-8.7,0.8-12.3,3c-3.3,2.1-6.5,4.5-9.3,6.6c1.8-3.7,4.9-7.1,8.9-9.7c4.4-2.8,9.2-4.5,14.2-5.9
			c1.9-0.5,3.9-1.4,5.4-2.7c7.2-5.8,14.9-10.9,23-15.4c5.9-3.3,11.5-7.1,17.2-10.7c0.3-0.2,0.5-0.5,0.7-1
			c-11.8,6.4-24.8,6.9-37.5,8.9c-0.1-0.2-0.2-0.4-0.3-0.6c0.7-0.5,1.4-1.1,2.2-1.5c5.1-2.7,10.6-3.7,16.2-4.6c8.1-1.3,15.5-4,22-9.1
			c5.5-4.3,11.1-8.6,14.4-14.8c1.6-3,2.3-6.6,2.8-10c0.8-5.4-1.5-10.3-2.9-15.4c-1.2-4.6-2.8-9.1-3.5-13.7
			c-1.5-10.9,0.8-20.8,8.8-28.9c1.6-1.7,3.4-3.2,5.2-4.8c-0.1-0.2-0.2-0.4-0.3-0.6c-0.4,0.1-0.9,0.1-1.2,0.3
			c-8,6-13.4,13.7-14.9,23.8c-0.3,1.7-0.1,3.5-0.2,5.3C370,387.2,369.6,388,369.3,388.9L369.3,388.9z M424.2,358.4
			c-0.1,0.1-0.2,0.1-0.3,0.2c0.4,0.5,0.7,1.2,1.2,1.6c3.6,3,7.2,5.9,11.1,9.1c0.1-2.7-0.8-4.4-2.7-5.5
			C430.4,361.9,427.3,360.2,424.2,358.4z M392,460.5c-3.1,1.3-5.8,2.4-9,3.8C386.5,464.7,390.7,462.9,392,460.5z M441.7,373.8
			c0.8,0.8,1.5,1.5,2.3,2.3c0.2-0.2,0.3-0.3,0.5-0.5C444.3,374.3,443.8,373.1,441.7,373.8z"/>
		<path fill="#FFFFFF" d="M348.5,409c-4.7,0.5-8.4-0.8-11.9-3c-9-5.9-12.9-14.7-13.8-25c-0.6-6.9,0.2-13.7,3-20.1
			c2-4.6,3.7-9.4,6.4-13.5c3.5-5.3,8.8-9.1,14.2-12.5c1.7-1.1,3.3-2.5,4.7-4.1c-0.3,0.1-0.7,0.1-1,0.3c-9.2,5.6-18.6,10.9-27.6,17
			c-8,5.4-14.8,12.3-21.3,19.6c-5.7,6.3-10.7,13.2-14.8,20.6c-3.4,6-5.6,12.6-7.8,19.2c-2.6,8.1-3.7,16.5-4.3,25
			c0,0.4-0.1,0.8-0.3,1.7c-6.7-4.4-13.2-4.4-19.7,0.4c1.6-9,5.2-17.1,9.7-24.8c4.5-7.6,10-14.5,16.2-20.8c-0.2-0.2-0.4-0.3-0.6-0.5
			c-2.7,2.3-5.5,4.5-8.2,6.9c-12,11-20.1,24.5-24.7,40c-2,6.7-3.5,13.5-5.1,20.3c-0.6,2.6-0.6,5.3-1.1,8c-0.2,1.1-0.9,2.1-1.4,3.1
			c-0.3,0-0.7-0.1-1-0.1c-0.6-2.1-1.2-4.1-1.7-6.2c-2-9-2.9-17.9-1.3-27.1c1.8-10.6,4.4-21,9.7-30.5c3.5-6.3,7.2-12.6,11.2-18.6
			c7.5-11.4,17.2-20.7,27.7-29.2s22.1-15.5,34.5-20.8c9-3.8,18.4-6.7,27.6-10.1c4-1.5,8-2.8,11.6-4.9c4.6-2.7,8-6.7,8.4-13
			c1.4,3.7,1.2,6.9,0.2,9.9c-1.1,3.6-3.1,6.7-5.7,9.6c-5.3,6-10.5,12-15.1,18.5c-3.9,5.5-5.4,12.2-6.4,18.9
			c-1.6,10.6-1,21.2,2.3,31.4c1.4,4.3,3.8,8.3,5.8,12.4C347.6,407.4,348,408,348.5,409z"/>
		<path fill="#FFFFFF" d="M472.8,380.9c1.4,3.9,2.1,7.6,3.2,12c0,0.2,0.1,0.6,0.2,0.8c0.9,4.1,1.5,7.2,1.8,10.8
			c1.5,16.9,0.4,33.6-3.9,50c-2.6,10.1-6.1,19.9-10.6,29.2c-5.4,11.1-11.9,21.6-19.9,31c-7.1,8.3-14.8,15.9-23.4,22.6
			c-8.1,6.4-16.7,11.8-26.3,15.7c-7.3,2.9-14.6,6-22.2,8.3c-8.4,2.5-17.1,3.8-25.9,3.9c-9.2,0.1-15.7-4.2-20.5-11.7
			c-3.1-4.9-4.6-10.4-5.3-16.2c0-0.3,0-0.7,0.1-1.2c3.1,0.6,6,1.2,9,1.7c11,1.9,22,2.1,33.1,0.8c9.3-1.1,18.4-3.3,27.2-6.7
			c8.3-3.2,16.1-7.5,23.6-12.2c12.2-7.5,22.2-17.4,31.3-28.4c5.8-7,11-14.4,15.2-22.4c4.5-8.6,8.2-17.6,10.7-27.1
			c3.3-12.2,4.8-24.5,4.5-37.1c-0.1-3.8-0.4-7.6-0.7-11.4C473.8,389.3,473.3,385.1,472.8,380.9z"/>
		<path fill="#FFFFFF" d="M324.2,351.4c-2.4,6.1-4.8,11.7-7,17.5c-3.1,8.2-4.7,16.7-5.1,25.4c-0.4,10.3,0.6,20.5,4,30.3
			c0.6,1.8,0.1,2.5-1.6,3c-7,2.3-13,6.1-17.4,12.2c-0.9,1.3-1.7,2.7-2.7,4.4c-0.3-6.2,0.3-12.1,1.7-17.8c1.4-5.7,3.2-11.3,4.8-17
			c-0.2-0.2-0.4-0.5-0.6-0.7c-0.1,0.5-0.2,1.1-0.4,1.6c-5.9,9.9-9.2,20.5-10.4,31.9c-1.1,10.4-1.2,20.7,0.2,31c0.1,0.8,0,1.6,0,2.4
			c-0.2,0.1-0.4,0.1-0.7,0.2c-1.7-3.7-3.7-7.4-5.1-11.2c-3.2-8.6-4.2-17.5-4-26.6c0.3-16.2,4.2-31.5,11.6-45.8
			c4.3-8.4,8.5-17,15.1-23.9c5.1-5.4,10.6-10.5,15.9-15.7C322.9,352.1,323.4,351.9,324.2,351.4z"/>
		<path fill="#FFFFFF" d="M318.8,378.9c1.3,5.6,2,10.6,3.6,15.4c3.9,12.1,17,19.3,27,18.3c1.2-0.1,2.7,1.2,3.9,2
			c3.8,2.8,7.6,5.9,11.4,8.7c1.4,1,3.1,1.7,4.7,2.5c1.5,0.8,1.6,1.6,0.3,2.7c-2.5,2.1-5.3,2.7-8.5,1.5c-6-2.2-12-4.5-18.2-6.2
			c-6.6-1.9-13.3-1.5-19.8,0.8c-2.5,0.9-2.6,0.7-3.3-1.8c-2.7-9.1-2.9-18.5-2.6-27.9C317.5,389.8,318.2,384.6,318.8,378.9z"/>
		<path fill="#FFFFFF" d="M397.9,426.9c0.7,0.4,1.4,0.8,2,1.2c4.7,3.3,9.5,6.7,15.5,7.5c0.5,0.1,1.1,0.7,1.2,1.2
			c1.6,9-0.4,17-6.5,24.2c-1.3-2.3-2.5-4.4-3.6-6.6c-0.3-0.6-0.2-1.5-0.1-2.3c0.8-8.1-0.7-15.4-6.3-21.7c-0.9-1-1.7-2.1-2.5-3.1
			C397.8,427.2,397.8,427,397.9,426.9z"/>
		<path fill="#FFFFFF" d="M312,520.3c-0.9-5.2-0.3-10.4,1.2-15.3c4-13.2,13.3-22.2,22.5-27c-0.8,1.3-1.4,2.1-1.8,3.1
			c-3.6,7.8-8.9,14.3-13.9,21.1C316,507.5,312.9,513.4,312,520.3z"/>
		<path fill="#FFFFFF" d="M313.8,458c-0.9-1.8-2-3.5-2.6-5.4c-1.5-5-2.8-10-4.1-15c-0.4-1.5,0.3-2.4,1.7-2.9c2.5-1,4.9-2.1,7.4-3.2
			c1.1-0.5,2.2-1,3.2,0.3c1.1,1.4,0.9,2.6,0.1,4.1c-1.4,2.8-3.1,5.5-3.8,8.4c-0.9,3.8-0.8,7.8-1.2,11.7c-0.1,0.6-0.1,1.3-0.1,1.9
			C314.1,457.9,314,457.9,313.8,458z"/>
		<path fill="#FFFFFF" d="M333.5,487.5c-0.1-6.9,9.4-16,20.4-19.4c0.7,4.1-0.7,7-4,9.1C344.4,480.6,339,484.1,333.5,487.5z"/>
		<path fill="#FFFFFF" d="M297.1,485c1.6-4.4,4.3-8,7.9-10.9c7.6-6.3,16.6-8.7,26.2-9.7c1.8-0.2,3.5-0.5,5.3-0.7
			c0.1,0.3,0.2,0.6,0.3,0.9c-4.3,1.8-8.6,3.7-13,5.2c-3.6,1.3-7.5,1.8-11.2,3.1c-6,2.1-10.5,6.2-14.5,11
			C297.8,484.3,297.4,484.6,297.1,485z"/>
		<path fill="#FFFFFF" d="M328.4,440.8c13.6,3.3,25.9-1.5,38.3-5.9c-4.2,4.7-9.4,7.4-15.1,9.2C345.9,446.1,331.6,444.5,328.4,440.8z
			"/>
		<path fill="#FFFFFF" d="M369.3,388.9c0.3,0.6,0.6,1.1,0.8,1.7c1.5,6.2,2.8,12.4,4.5,18.5c1.3,4.8,2,9.5-0.1,14.3
			c-0.2,0.4-0.4,0.9-0.6,1.3c-0.2,0-0.4,0-0.6,0c-0.1-1.2-0.4-2.4-0.3-3.5c0.7-4.9-0.3-9.7-1.5-14.4c-0.1-0.3-0.3-0.5-0.6-1
			c-1.2,3-2.3,5.7-3.4,8.4c-0.2,0-0.4-0.1-0.6-0.1c0.1-1.5,0.2-3,0.4-4.6c0.5-5.6,1.1-11.2,1.6-16.8
			C369,391.4,369.2,390.1,369.3,388.9L369.3,388.9z"/>
		<path fill="#FFFFFF" d="M405.7,457.2c1.4,3.8-0.5,7-4.1,6.8C403,461.7,404.3,459.5,405.7,457.2z"/>
	</g>
</g>
</svg>
